<?xml version="1.0" standalone="no"?>
<!DOCTYPE svg PUBLIC "-//W3C//DTD SVG 20010904//EN"
 "http://www.w3.org/TR/2001/REC-SVG-20010904/DTD/svg10.dtd">
<svg version="1.0" xmlns="http://www.w3.org/2000/svg"
 width="700.000000pt" height="700.000000pt" viewBox="0 0 700.000000 700.000000"
 preserveAspectRatio="xMidYMid meet">
<metadata>
Created by potrace 1.11, written by Peter Selinger 2001-2013
</metadata>
<g transform="translate(0.000000,700.000000) scale(0.100000,-0.100000)"
fill="#000000" stroke="none">
<path d="M1537 5834 c-1 -1 -36 -4 -77 -7 -139 -9 -245 -60 -356 -171 -81 -81
-136 -181 -157 -285 -11 -50 -13 -346 -11 -1420 0 -746 4 -1372 8 -1391 13
-63 64 -170 106 -225 73 -95 168 -165 280 -206 l65 -24 2080 -2 c2309 -3 2142
-7 2278 64 130 68 266 232 291 351 4 15 9 38 13 52 9 38 10 2728 1 2785 -5 28
-12 59 -17 70 -81 207 -238 351 -431 395 -43 10 -482 13 -2063 14 -1105 1
-2009 0 -2010 0z m4007 -487 c59 -39 56 30 56 -1382 0 -1427 4 -1347 -62
-1381 -31 -16 -155 -17 -2044 -17 -1837 0 -2013 1 -2034 16 -12 9 -31 29 -41
44 -18 27 -19 82 -19 1343 l0 1316 28 32 c15 18 40 36 57 41 16 4 930 7 2030
7 1921 -1 2002 -2 2029 -19z"/>
<path d="M0 1680 c0 -231 9 -266 81 -338 78 -77 182 -127 329 -159 68 -14 362
-16 3050 -16 1636 0 3012 2 3056 6 155 13 314 80 403 169 74 73 81 104 81 333
l0 191 -3500 0 -3500 0 0 -186z m3817 -54 c45 -15 42 -88 -4 -103 -22 -6 -492
-10 -610 -4 -42 2 -67 53 -44 89 5 8 23 17 40 20 43 9 590 7 618 -2z"/>
</g>
</svg>
